<svg xmlns="http://www.w3.org/2000/svg" width="21" height="21" viewBox="0 0 21 21" fill="none">
  <path d="M1.93613 16.4214C3.23514 15.1224 4.51913 13.8459 5.81063 12.5544C6.71167 13.478 7.62774 14.4166 8.55131 15.3552C10.1356 13.7633 11.6449 12.2391 13.2142 10.6622C13.8149 11.2854 14.3781 11.8711 14.9412 12.4568C14.9637 12.4418 14.9938 12.4193 15.0163 12.4042C15.0163 10.7899 15.0163 9.16799 15.0163 7.53109C13.3869 7.53109 11.765 7.53109 10.1882 7.53109C10.7288 8.06421 11.2995 8.61985 11.8476 9.15297C10.6913 10.3093 9.63256 11.3605 8.5438 12.4418C7.69531 11.5708 6.78676 10.6397 5.86319 9.6936C4.20376 11.368 2.5969 12.9899 0.975016 14.6268C-0.774514 11.353 -0.39157 5.60886 4.30138 2.29752C8.82913 -0.893685 15.189 0.292692 18.2901 4.89553C21.4363 9.57346 20.1598 15.8583 15.4293 18.9143C10.8039 21.9028 4.81197 20.5061 1.93613 16.4214Z" fill="#6A6A6A"/>
</svg>
